# AST/ASF file generated using VICON BodyLanguage
# -----------------------------------------------
:version 1.10
:name VICON
:units
  mass 1.0
  length 0.45
  angle deg
:documentation
   .ast/.asf automatically generated from VICON data using
   VICON BodyBuilder and BodyLanguage model FoxedUp or BRILLIANT.MOD
:root
   order TX TY TZ RX RY RZ
   axis XYZ
   position 0 0 0  
   orientation 0 0 0 
:bonedata
  begin
     id 1 
     name lhipjoint
     direction 0.682418 -0.694059 0.22932 
     length 2.25561 
     axis 0 0 0  XYZ
  end
  begin
     id 2 
     name lfemur
     direction 0.34202 -0.939693 0  
     length 6.96448  
     axis 0 0 20  XYZ
    dof rx ry rz
    limits (-160.0 20.0)
           (-70.0 70.0)
           (-60.0 70.0)
  end
  begin
     id 3 
     name ltibia
     direction 0.34202 -0.939693 0   
     length 6.88553   
     axis 0 0 20   XYZ
    dof rx
    limits (-10.0 170.0)
  end
  begin
     id 4 
     name lfoot
     direction 0.0723587 -0.198804 0.977364   
     length 1.88518   
     axis -90 7.62852e-016 20   XYZ
    dof rx rz
    limits (-45.0 90.0)
           (-70.0 20.0)
  end
  begin
     id 5 
     name ltoes
     direction 1.53558e-011 -4.21962e-011 1   
     length 0.952124   
     axis -90 7.62852e-016 20   XYZ
    dof rx
    limits (-90.0 20.0)
  end
  begin
     id 6 
     name rhipjoint
     direction -0.657603 -0.71533 0.236348   
     length 2.18854  
     axis 0 0 0  XYZ 
  end
  begin
     id 7 
     name rfemur
     direction -0.34202 -0.939693 0   
     length 6.86686   
     axis 0 0 -20   XYZ
    dof rx ry rz
    limits (-160.0 20.0)
           (-70.0 70.0)
           (-70.0 60.0)
  end
  begin
     id 8 
     name rtibia
     direction -0.34202 -0.939693 0   
     length 6.59503   
     axis 0 0 -20   XYZ
    dof rx
    limits (-10.0 170.0)
 end
 begin
     id 9 
     name rfoot
     direction -0.101977 -0.280179 0.954516   
     length 1.93723  
     axis -90 -7.62852e-016 -20   XYZ
    dof rx rz
    limits (-45.0 90.0)
           (-20.0 70.0)
  end
  begin
     id 10 
     name rtoes
     direction -1.53564e-011 -4.21897e-011 1   
     length 0.970315   
     axis -90 -7.62852e-016 -20   XYZ
    dof rx
    limits (-90.0 20.0)
  end
  begin
     id 11 
     name lowerback
     direction -0.0339559 0.999421 -0.00235966   
     length 1.88543   
     axis 0 0 0   XYZ
    dof rx ry rz
    limits (-20.0 45.0)
           (-30.0 30.0)
           (-30.0 30.0)
  end
  begin
     id 12 
     name upperback
     direction 0.00401003 0.999739 0.0224689   
     length 1.8856   
     axis 0 0 0   XYZ
    dof rx ry rz
    limits (-20.0 45.0)
           (-30.0 30.0)
           (-30.0 30.0)
  end
  begin
     id 13 
     name thorax
     direction 0.0198619 0.999546 0.0226536   
     length 1.88352   
     axis 0 0 0   XYZ
    dof rx ry rz
    limits (-20.0 45.0)
           (-30.0 30.0)
           (-30.0 30.0)
  end
  begin
     id 14 
     name lowerneck
     direction -0.0461848 0.998632 0.0245198   
     length 1.34895   
     axis 0 0 0   XYZ
    dof rx ry rz
    limits (-20.0 45.0)
           (-30.0 30.0)
           (-30.0 30.0)
  end
  begin
     id 15 
     name upperneck
     direction -0.0180627 0.994724 -0.100984   
     length 1.35214   
     axis 0 0 0   XYZ
    dof rx ry rz
    limits (-20.0 45.0)
           (-30.0 30.0)
           (-30.0 30.0)
  end
  begin
     id 16
     name head
     direction -0.00374772 0.999293 -0.037403  
     length 1.3568  
     axis 0 0 0   XYZ
    dof rx ry rz
    limits (-20.0 45.0)
           (-30.0 30.0)
           (-30.0 30.0)
  end
  begin
     id 17 
     name lclavicle
     direction 0.971773 0.191119 0.138311  
     length 2.84954  
     axis 0 0 0   XYZ
    dof ry rz
    limits (-20.0 10.0)
           (0.0 20.0)
  end
  begin
     id 18 
     name lhumerus
     direction 1 -4.4897e-011 -2.43761e-027   
     length 4.40919   
     axis 180 -30 -90   XYZ
    dof rx ry rz
    limits (-60.0 90.0)
           (-90.0 90.0)
           (-90.0 90.0)
  end
  begin
     id 19
     name lradius
     direction 1 -4.4896e-011 -9.1621e-027   
     length 3.03857   
     axis 180 -30 -90   XYZ
    dof rx
    limits (-10.0 170.0)
  end
  begin
     id 20
     name lwrist
     direction 1 -4.4896e-011 -1.41363e-026   
     length 1.51928   
     axis 1.07133e-014 90 90   XYZ
    dof ry
    limits (-180.0 0.0)
 end
  begin
     id 21 
     name lhand
     direction 1 -4.48978e-011 -2.82725e-026   
     length 0.523208   
     axis 1.80403e-014 90 90   XYZ
    dof rx rz
    limits (-90.0 90.0)
           (-45.0 45.0)
  end
  begin
     id 22 
     name lfingers
     direction 1 -4.48977e-011 -5.6545e-026   
     length 0.421824   
     axis 3.60806e-014 90 90   XYZ
    dof rx
    limits (0.0 90.0)
  end
  begin
     id 23
     name lthumb
     direction 0.707107 -6.34962e-011 0.707107   
     length 0.605657   
     axis -90 45 2.85299e-015   XYZ
    dof rx rz
    limits (-45.0 45.0)
           (-45.0 45.0)
  end
  begin
     id 24 
     name rclavicle
     direction -0.957247 0.24311 0.156766   
     length 3.12406  
     axis 0 0 0   XYZ 
    dof ry rz
    limits (-10.0 20.0)
           (-20.0 0.0)
  end
  begin
     id 25 
     name rhumerus
     direction -1 -4.48964e-011 -1.70632e-027  
     length 4.61969   
     axis 180 30 90   XYZ
    dof rx ry rz
    limits (-90.0 60.0)
           (-90.0 90.0)
           (-90.0 90.0)
  end
  begin
     id 26 
     name rradius
     direction -1 -4.48966e-011 -6.60395e-027   
     length 3.09382   
     axis 180 30 90   XYZ
    dof rx
    limits (-10.0 170.0)
  end
  begin
     id 27 
     name rwrist
     direction -1 -4.48963e-011 -1.41363e-026   
     length 1.54691   
     axis 1.07133e-014 -90 -90   XYZ
    dof ry
    limits (-180.0 0.0)
  end
  begin
     id 28
     name rhand
     direction -1 -4.49013e-011 -2.82725e-026   
     length 0.500896   
     axis 1.80403e-014 -90 -90   XYZ
    dof rx rz
    limits (-90.0 90.0)
           (-45.0 45.0)
  end
  begin
     id 29
     name rfingers
     direction -1 -4.48902e-011 -5.6545e-026   
     length 0.403835   
     axis 3.60806e-014 -90 -90   XYZ
    dof rx
    limits (0.0 90.0)
  end
  begin
     id 30
     name rthumb
     direction -0.707107 -6.34953e-011 0.707107   
     length 0.579829   
     axis -90 -45 -2.85299e-015   XYZ
    dof rx rz
    limits (-45.0 45.0)
           (-45.0 45.0)
  end
:hierarchy
  begin
    root lhipjoint rhipjoint lowerback
    lhipjoint lfemur
    lfemur ltibia
    ltibia lfoot
    lfoot ltoes
    rhipjoint rfemur
    rfemur rtibia
    rtibia rfoot
    rfoot rtoes
    lowerback upperback
    upperback thorax
    thorax lowerneck lclavicle rclavicle
    lowerneck upperneck
    upperneck head
    lclavicle lhumerus
    lhumerus lradius
    lradius lwrist
    lwrist lhand lthumb
    lhand lfingers
    rclavicle rhumerus
    rhumerus rradius
    rradius rwrist
    rwrist rhand rthumb
    rhand rfingers
  end

#!OML:ASF E:\madness\Project 1\Capture day 1\Session 1\Female1.ASF
:FULLY-SPECIFIED
:DEGREES
515
root 16.1932 15.5718 -1.59846 188.741 -72.9571 -158.942
lowerback 30.3549 1.06899 -4.84504
upperback 9.12615 -1.95297 -6.81916
thorax -6.47114 -1.3656 -4.12977
lowerneck -5.63861 11.1326 3.97839
upperneck 2.00953 15.1167 -11.5299
head 2.70993 7.3249 -3.34307
rclavicle -9.54166e-015 -6.75868e-014
rhumerus -66.0702 -5.42777 -74.1334
rradius 71.606
rwrist -7.96536
rhand -18.388 -31.2576
rfingers 7.12502
rthumb 7.89582 -61.0901
lclavicle -9.54166e-015 -6.75868e-014
lhumerus -11.1593 -3.50583 56.9498
lradius 84.2951
lwrist -6.90049
lhand -55.1819 -23.5998
lfingers 7.12502
lthumb -27.5541 4.40344
rfemur -51.9494 0.201474 23.7685
rtibia 70.7237
rfoot -16.5017 -15.8691
rtoes 17.4972
lfemur -53.576 -6.21221 -5.81108
ltibia 48.4158
lfoot -14.6405 16.4916
ltoes -12.3276
516
root 16.2589 15.5453 -1.58587 189.334 -72.6152 -159.809
lowerback 30.5993 1.28562 -5.45155
upperback 9.14918 -1.87269 -6.62718
thorax -6.53049 -1.33326 -3.59168
lowerneck -5.81489 11.0545 3.50789
upperneck 1.97587 15.0297 -11.1738
head 2.9375 7.29511 -3.53011
rclavicle -1.145e-013 -6.04305e-014
rhumerus -66.6079 -4.53526 -73.7364
rradius 71.0798
rwrist -7.58881
rhand -18.1043 -31.5356
rfingers 7.12502
rthumb 8.16964 -61.3577
lclavicle -1.145e-013 -6.04305e-014
lhumerus -12.5753 -2.74303 57.0047
lradius 86.2984
lwrist -5.56932
lhand -54.9037 -21.5463
lfingers 7.12502
lthumb -27.2881 6.4991
rfemur -50.5509 0.0364036 23.3919
rtibia 70.4719
rfoot -16.3668 -16.749
rtoes 19.4042
lfemur -53.7461 -6.16111 -5.97783
ltibia 48.8446
lfoot -14.5649 16.6137
ltoes -12.3784
517
root 16.3218 15.5204 -1.57509 189.782 -72.3349 -160.628
lowerback 31.0272 1.62478 -5.11015
upperback 9.1056 -1.45647 -6.9382
thorax -6.78196 -1.1426 -4.29956
lowerneck -5.37349 10.5778 3.93841
upperneck 1.98065 14.3451 -10.8665
head 2.8106 6.97727 -3.5758
rclavicle -1.59028e-015 3.02153e-014
rhumerus -67.9862 -5.19077 -73.5708
rradius 70.6399
rwrist -7.17336
rhand -17.7704 -31.923
rfingers 7.12502
rthumb 8.49191 -61.7322
lclavicle -1.59028e-015 3.02153e-014
lhumerus -13.5053 -3.37095 56.3536
lradius 88.9068
lwrist -3.71622
lhand -54.1012 -19.9593
lfingers 7.12502
lthumb -26.5202 8.20447
rfemur -48.9962 -0.123357 22.9952
rtibia 69.9684
rfoot -16.3478 -17.3668
rtoes 20.8839
lfemur -53.7953 -6.15461 -6.17468
ltibia 49.2979
lfoot -14.6131 16.7366
ltoes -11.932
518
root 16.3913 15.4913 -1.56406 190.243 -72.0707 -161.462
lowerback 31.712 1.9426 -5.36994
upperback 8.92627 -1.23111 -7.06018
thorax -6.69381 -1.01565 -4.08331
lowerneck -6.00281 10.3469 3.62711
upperneck 2.12304 14.0535 -10.6417
head 2.90163 6.81037 -3.4308
rclavicle -1.43125e-014 -8.66701e-014
rhumerus -68.3387 -4.99837 -73.3285
rradius 70.0178
rwrist -6.7411
rhand -17.6821 -32.3598
rfingers 7.12502
rthumb 8.5771 -62.1656
lclavicle -1.43125e-014 -8.66701e-014
lhumerus -14.7201 -2.66767 56.0563
lradius 92.0849
lwrist -1.8451
lhand -53.4149 -21.2039
lfingers 7.12502
lthumb -25.8631 7.05734
rfemur -47.4822 -0.212007 22.5625
rtibia 69.247
rfoot -16.4721 -17.8017
rtoes 22.1326
lfemur -53.9199 -6.16379 -6.36549
ltibia 49.7894
lfoot -14.56 16.8585
ltoes -11.2896
519
root 16.4651 15.4607 -1.5537 190.708 -71.6791 -162.204
lowerback 32.0591 2.31262 -5.59378
upperback 8.90387 -0.891178 -7.02108
thorax -6.83065 -0.860193 -4.04262
lowerneck -5.9769 10.0594 3.4468
upperneck 2.27365 13.6804 -10.4703
head 2.88706 6.62106 -3.36755
rclavicle -7.95139e-015 3.65764e-014
rhumerus -69.0275 -4.61869 -73.0332
rradius 69.4616
rwrist -6.43122
rhand -17.9424 -32.8442
rfingers 7.12502
rthumb 8.32595 -62.6601
lclavicle -7.95139e-015 3.65764e-014
lhumerus -16.0575 -2.12339 55.8254
lradius 95.4196
lwrist 0.041534
lhand -53.7294 -24.0631
lfingers 7.12502
lthumb -26.1643 4.15391
rfemur -46.1538 -0.156871 22.1403
rtibia 68.2973
rfoot -16.4778 -18.135
rtoes 22.599
lfemur -54.1492 -6.16417 -6.44533
ltibia 50.2932
lfoot -14.4421 17.1391
ltoes -11.0466
520
root 16.5375 15.4271 -1.5458 191.155 -71.1963 -162.896
lowerback 32.4061 2.69295 -6.04626
upperback 8.91092 -0.615817 -6.9599
thorax -6.93076 -0.73894 -3.83794
lowerneck -6.25314 9.85018 3.31917
upperneck 2.50614 13.4183 -10.3503
head 2.97561 6.47531 -3.30624
rclavicle -4.45278e-014 -1.04163e-013
rhumerus -69.4254 -3.87842 -72.9219
rradius 68.9248
rwrist -6.51704
rhand -18.585 -32.6873
rfingers 7.12502
rthumb 7.70575 -62.5269
lclavicle -4.45278e-014 -1.04163e-013
lhumerus -17.2289 -1.2117 55.3509
lradius 98.7453
lwrist 1.53312
lhand -54.5453 -24.8956
lfingers 7.12502
lthumb -26.9451 3.20323
rfemur -44.8595 -0.0545517 21.7329
rtibia 67.1443
rfoot -16.5161 -18.1874
rtoes 23.6557
lfemur -54.3529 -6.06843 -6.55422
ltibia 50.8296
lfoot -14.225 17.6472
ltoes -12.084
521
root 16.6144 15.386 -1.53662 191.692 -70.7609 -163.551
lowerback 32.6453 3.0629 -6.41947
upperback 8.896 -0.312807 -6.89404
thorax -7.01674 -0.601969 -3.68148
lowerneck -6.33438 9.59793 3.0911
upperneck 2.58187 13.0888 -10.1201
head 2.95139 6.309 -3.2069
rclavicle 1.90833e-014 4.85035e-014
rhumerus -69.8612 -3.1595 -72.7384
rradius 68.6144
rwrist -6.83975
rhand -18.5978 -32.6255
rfingers 7.12502
rthumb 7.69332 -62.4656
lclavicle 1.90833e-014 4.85035e-014
lhumerus -18.3044 -0.170706 54.7585
lradius 102.18
lwrist 2.78935
lhand -54.5587 -23.7368
lfingers 7.12502
lthumb -26.958 4.36009
rfemur -43.7464 0.00850808 21.3491
rtibia 65.8049
rfoot -16.5436 -18.0586
rtoes 25.054
lfemur -54.7623 -5.88005 -6.69202
ltibia 51.424
lfoot -14.0388 18.0356
ltoes -12.3918
522
root 16.6941 15.3443 -1.52719 192.02 -70.3812 -163.872
lowerback 32.7359 3.36829 -6.51294
upperback 8.85043 0.0240126 -6.84302
thorax -7.08793 -0.44449 -3.69925
lowerneck -6.07733 9.25171 2.55255
upperneck 2.53115 12.6287 -9.58237
head 2.76188 6.09558 -2.97582
rclavicle 2.54444e-014 9.06458e-014
rhumerus -70.3919 -2.51008 -72.5153
rradius 68.4709
rwrist -7.23667
rhand -18.0482 -33.487
rfingers 7.12502
rthumb 8.22381 -63.3069
lclavicle 2.54444e-014 9.06458e-014
lhumerus -19.2449 0.920135 53.9784
lradius 105.669
lwrist 3.85828
lhand -53.9331 -22.7548
lfingers 7.12502
lthumb -26.3593 5.43319
rfemur -42.7842 0.0803668 21.0969
rtibia 64.2281
rfoot -16.514 -17.9621
rtoes 24.5702
lfemur -55.3374 -5.68392 -6.67451
ltibia 52.061
lfoot -14.057 18.2198
ltoes -11.5405
523
root 16.7762 15.3037 -1.5195 192.014 -70.0171 -163.85
lowerback 32.8919 3.65248 -6.47684
upperback 8.93982 0.350442 -6.85966
thorax -7.04151 -0.300977 -3.85344
lowerneck -6.7017 8.90979 2.14823
upperneck 2.87796 12.2 -9.03434
head 2.88858 5.86385 -2.71724
rclavicle 4.77083e-014 -8.50798e-014
rhumerus -70.3834 -2.09387 -72.4676
rradius 68.0874
rwrist -7.46413
rhand -17.8652 -34.139
rfingers 7.12502
rthumb 8.40046 -63.9519
lclavicle 4.77083e-014 -8.50798e-014
lhumerus -19.5893 2.31441 52.8264
lradius 109.087
lwrist 4.83018
lhand -53.5798 -21.7795
lfingers 7.12502
lthumb -26.021 6.45868
rfemur -41.8385 0.139085 21.0094
rtibia 62.4264
rfoot -16.3441 -17.9488
rtoes 21.8399
lfemur -55.9069 -5.51778 -6.47919
ltibia 52.7307
lfoot -14.1534 18.4401
ltoes -11.2262
524
root 16.8608 15.2637 -1.51548 191.932 -69.7211 -163.815
lowerback 33.2141 3.90096 -6.55415
upperback 8.93887 0.581431 -6.8323
thorax -7.15606 -0.197186 -3.87404
lowerneck -7.15167 8.65306 1.82351
upperneck 3.2155 11.8843 -8.59578
head 3.00715 5.6925 -2.51175
rclavicle 9.85972e-014 4.69132e-014
rhumerus -70.2898 -1.45364 -72.4755
rradius 67.6059
rwrist -7.50911
rhand -17.7647 -34.1245
rfingers 7.12502
rthumb 8.49738 -63.9335
lclavicle 9.85972e-014 4.69132e-014
lhumerus -19.9354 4.02195 51.5473
lradius 112.374
lwrist 5.53518
lhand -53.3887 -20.1126
lfingers 7.12502
lthumb -25.838 8.15232
rfemur -40.8348 0.0874624 21.0191
rtibia 60.4223
rfoot -16.3171 -17.8426
rtoes 16.305
lfemur -56.4498 -5.36603 -6.25548
ltibia 53.3996
lfoot -14.2204 18.6282
ltoes -11.4328
525
root 16.9474 15.2168 -1.51576 192.061 -69.4409 -163.916
lowerback 33.3927 4.21409 -6.66848
upperback 8.99951 0.894681 -6.82354
thorax -7.14583 -0.0584762 -3.92108
lowerneck -7.57086 8.38539 1.67643
upperneck 3.50394 11.5377 -8.19247
head 3.12121 5.51132 -2.35399
rclavicle -2.22639e-014 -1.03368e-014
rhumerus -70.2052 -0.846216 -72.568
rradius 67.2657
rwrist -7.66635
rhand -17.6589 -34.1335
rfingers 7.12502
rthumb 8.59951 -63.9384
lclavicle -2.22639e-014 -1.03368e-014
lhumerus -19.6667 5.905 50.1333
lradius 115.32
lwrist 5.99401
lhand -52.8747 -18.8125
lfingers 7.12502
lthumb -25.3457 9.52319
rfemur -39.9159 0.0210743 21.0642
rtibia 58.3029
rfoot -17.2101 -17.6624
rtoes 6.44117
lfemur -57.1036 -5.15959 -6.08544
ltibia 54.068
lfoot -14.0094 18.8484
ltoes -12.2464
526
root 17.0363 15.1689 -1.51733 192.096 -69.2631 -164.021
lowerback 33.771 4.50639 -6.71278
upperback 9.04912 1.1727 -6.83633
thorax -7.22379 0.0639589 -4.02262
lowerneck -7.81775 8.10803 1.79905
upperneck 3.82271 11.1585 -7.91701
head 3.24424 5.31802 -2.29508
rclavicle -7.63333e-014 3.4191e-014
rhumerus -70.1779 -0.214422 -72.7288
rradius 67.1259
rwrist -8.01931
rhand -17.6568 -34.571
rfingers 7.12502
rthumb 8.60156 -64.3758
lclavicle -7.63333e-014 3.4191e-014
lhumerus -19.0957 8.05938 48.5735
lradius 118.126
lwrist 6.61902
lhand -52.1434 -18.031
lfingers 7.12502
lthumb -24.645 10.4021
rfemur -38.8343 -0.110338 21.1871
rtibia 56.1866
rfoot -19.4402 -17.4945
rtoes -4.24051
lfemur -57.6815 -5.05422 -5.89058
ltibia 54.7078
lfoot -13.8583 18.9928
ltoes -12.4576
527
root 17.127 15.1292 -1.52071 191.836 -69.1598 -163.868
lowerback 34.2452 4.7052 -6.78943
upperback 9.08537 1.32772 -6.73739
thorax -7.35344 0.129233 -3.94871
lowerneck -7.99144 7.87487 1.73367
upperneck 4.0432 10.8556 -7.75322
head 3.32012 5.1609 -2.24055
rclavicle -9.70069e-014 -5.08889e-014
rhumerus -69.9261 0.614108 -72.743
rradius 67.1578
rwrist -8.23515
rhand -17.3317 -35.1023
rfingers 7.12502
rthumb 8.91523 -64.894
lclavicle -9.70069e-014 -5.08889e-014
lhumerus -18.6982 10.7633 47.255
lradius 120.909
lwrist 7.0024
lhand -51.8178 -16.9951
lfingers 7.12502
lthumb -24.3328 11.4803
rfemur -37.6588 -0.311278 21.476
rtibia 54.2139
rfoot -22.4134 -17.1978
rtoes -8.78471
lfemur -58.1954 -4.96624 -5.56331
ltibia 55.3066
lfoot -14.0217 18.892
ltoes -11.723
528
root 17.2193 15.1 -1.52389 191.257 -69.0327 -163.403
lowerback 34.8012 4.89297 -6.93449
upperback 9.12475 1.45276 -6.49472
thorax -7.50825 0.178692 -3.67911
lowerneck -8.43869 7.71305 1.26612
upperneck 4.38355 10.6968 -7.52807
head 3.46602 5.06068 -2.0751
rclavicle -3.65764e-014 1.35174e-014
rhumerus -69.5036 1.75488 -72.5803
rradius 67.3022
rwrist -8.3981
rhand -16.7493 -35.4238
rfingers 7.12502
rthumb 9.47725 -65.1907
lclavicle -3.65764e-014 1.35174e-014
lhumerus -18.3076 13.9278 46.2095
lradius 123.66
lwrist 7.02346
lhand -51.8348 -15.578
lfingers 7.12502
lthumb -24.3491 12.8952
rfemur -36.5873 -0.559207 21.9201
rtibia 52.4829
rfoot -24.8103 -16.915
rtoes -5.8219
lfemur -58.6237 -4.90356 -5.10013
ltibia 55.8481
lfoot -13.9776 18.9164
ltoes -11.4665
529
root 17.3162 15.074 -1.52495 190.857 -68.9784 -162.994
lowerback 35.4373 5.06137 -7.01338
upperback 9.02311 1.55816 -6.3051
thorax -7.72157 0.226118 -3.53876
lowerneck -8.93237 7.57204 0.962799
upperneck 4.80625 10.5476 -7.16854
head 3.65412 4.97076 -1.89053
rclavicle 7.79236e-014 -4.13472e-014
rhumerus -69.1562 2.65635 -72.4661
rradius 67.4985
rwrist -8.55117
rhand -16.5451 -35.5427
rfingers 7.12502
rthumb 9.6743 -65.3006
lclavicle 7.79236e-014 -4.13472e-014
lhumerus -17.7 17.0527 45.0967
lradius 126.264
lwrist 6.97233
lhand -51.3278 -13.2717
lfingers 7.12502
lthumb -23.863 15.266
rfemur -35.8942 -0.882406 22.3992
rtibia 51.047
rfoot -26.1674 -16.9785
rtoes -2.8328
lfemur -59.2106 -4.87758 -4.63704
ltibia 56.3359
lfoot -13.7877 18.9
ltoes -10.9869
